<mxfile host="65bd71144e">
    <diagram id="WuR1DVNJPOqO50U3LXOW" name="ページ1">
        <mxGraphModel dx="528" dy="426" grid="1" gridSize="10" guides="1" tooltips="1" connect="1" arrows="1" fold="1" page="1" pageScale="1" pageWidth="827" pageHeight="1169" math="0" shadow="0">
            <root>
                <mxCell id="0"/>
                <mxCell id="1" parent="0"/>
                <mxCell id="3" value="Entity Framework Core" style="rounded=0;whiteSpace=wrap;html=1;fontFamily=Noto Sans JP;fontSize=18;fillColor=#85D2FF;fontColor=#000000;strokeColor=#FFFFFF;strokeWidth=2;fontSource=https%3A%2F%2Ffonts.googleapis.com%2Fcss%3Ffamily%3DNoto%2BSans%2BJP;" parent="1" vertex="1">
                    <mxGeometry x="274" y="200" width="280" height="40" as="geometry"/>
                </mxCell>
                <mxCell id="4" value=".NET 8 ～" style="rounded=0;whiteSpace=wrap;html=1;fontFamily=Noto Sans JP;fontSize=18;fillColor=#6a00ff;fontColor=#ffffff;strokeColor=#FFFFFF;strokeWidth=2;spacingLeft=4;fontSource=https%3A%2F%2Ffonts.googleapis.com%2Fcss%3Ffamily%3DNoto%2BSans%2BJP;" parent="1" vertex="1">
                    <mxGeometry x="274" y="240" width="280" height="40" as="geometry"/>
                </mxCell>
                <mxCell id="5" value="アプリケーション" style="rounded=0;whiteSpace=wrap;html=1;fontFamily=Noto Sans JP;fontSize=18;fillColor=#CCCCCC;fontColor=#000000;strokeColor=#FFFFFF;strokeWidth=2;fontSource=https%3A%2F%2Ffonts.googleapis.com%2Fcss%3Ffamily%3DNoto%2BSans%2BJP;" parent="1" vertex="1">
                    <mxGeometry x="274" y="120" width="280" height="80" as="geometry"/>
                </mxCell>
                <mxCell id="8" style="edgeStyle=none;html=1;exitX=1;exitY=0.5;exitDx=0;exitDy=0;entryX=0;entryY=0.5;entryDx=0;entryDy=0;fontColor=#2E303E;spacingRight=0;endSize=6;strokeWidth=1;" parent="1" source="7" target="5" edge="1">
                    <mxGeometry relative="1" as="geometry"/>
                </mxCell>
                <mxCell id="9" value="Text" style="edgeLabel;html=1;align=center;verticalAlign=middle;resizable=0;points=[];fontColor=#2E303E;" parent="8" vertex="1" connectable="0">
                    <mxGeometry x="-0.2143" y="2" relative="1" as="geometry">
                        <mxPoint x="7" y="-8" as="offset"/>
                    </mxGeometry>
                </mxCell>
                <mxCell id="7" value="" style="shape=image;verticalLabelPosition=bottom;labelBackgroundColor=default;verticalAlign=top;aspect=fixed;imageAspect=0;image=data:image/png,iVBORw0KGgoAAAANSUhEUgAAAeEAAAHhCAYAAABZSgYOAAAAAXNSR0IArs4c6QAAAARnQU1BAACxjwv8YQUAAAAJcEhZcwAAMsAAADLAAShkWtsAADrcSURBVHhe7Z0HfFXl/Yf1r7UqLvYKkAGEMMJKQBCZggzZREACYctQBFFRlGKL2+KqWwEHdaQuXFVRsdaigCCIAweIDAFFZalVhPf/ft/ci9d4GNrz0uT0eT6f55ME8eZybvJ7zr6HAAAAAAAAAAAAAAAAAAAAAAAAAAAAAAAAAAAAAAAAAAAAAAAAAAAAAAAAAAAAAAAAAAAAAAAAAAAAAAAAAAAAAAAAAAAAAAAAAAAAAAAAAAAAAAAAAAAAAAAAAAAAAAAAAAAAAAAAAAAAAAAAAAAAAAAAAAAAAAAAAAAAAAAAAAAAAAAAAAAAAAAAAAAAAAAAAAAAAAAAAAAAAAAAAAAAAAAAAAAAAAAAAAAAAAAAAAAAAAAAAAAAAAAAAAAAAAAAAAAAAAAAAAAAAAAAAAAAAAAAAAAAAAAAAAAAAAAAAAAAAAAAAAAAAAAAAAAAAAAAAAAAAAAAAAAAAAAAAAAAAAAAAAAAAAAAAAAAAAAAAAAAAAAAAAAAAAAAAAAAAAAAAAAAAAAAAAAAAAAAAADAATDPzDt86tSpR5+Tl3fCkCFDyo4fMaLiuaNHV7l44sRqkyadkzzpHERELDbaua35rTmuea65rvmuOa95Hxv9UFTYsHtDiaumTk0aN3pY5qjhg08ed+awzuefc1bOhRPHD7xw4oQhBY7Pm3zehEGIiFg01ZxOmNkDNcc1z91ct/Ndc17zPjb6oShgjDny4YfvqXzBhLOajBw4sNfQAf3HjBo8aOo5o4bfMPGs0TPOGzf2Pjnx7LGzJp49GhERi6xjZ+2Z2XZ+a45rnmuua75rzmvea+7HEgAHC7vQD83JyTnMekRubm6JCROGlZo8eULlC84ZnTFy6KCW/Xt2G9CnS6eLep/W6aYBvXs8NLh/37kj8nIXnDl44FsjBw9acmZe7qKReQMXIiJi0dTNac1rO7c1vzXHNc811zXfNec17zX3Nf/VAfVAXVAf1IlYMiBs7MI97OGHZ5S9aOLE2to1kdure9fup54ysEOr5me3aZZ9aavsxrec3Ljhwy2zG81td9KJizq3bvlBt/bt1nbvcMqGAtut79ah3TpERCyaak7HZ7bmt+a45rnmuua75rzmvea+5r86oB6oC+qDOhFLBoSNXbhH33bbTfUvmDCu38jBAyaf3rXzze1bNMs/sX7dF7My0hc0qJG2vF5a8of10qp9Wr9G6sZGtWp8lV0nfXuTOrW+kdl1au3IrltrOyIiFlHtnP5pZqdv1xzXPNdc13zXnNe819zX/FcH1AN1QX1QJ2LJgDCxC/bwp59+utqUSed1HzN86GV5ffs8ZteUFrfKzlrfOCP9u8zUZJNRtbKpUan87rQKZXelWu3H3dUrlkNExGKq5nhsnu/SfNec17zX3Nf8VwfUA3VBfVAn1ItYOuA/pVWrVkf269q1fG7PnnX7du16Wk7XLpP7dOmY3619u6WnND/x82aZdXc3qlnd1EupZjKqVDI1KpYzqeVKm+SypawlTXIZREQstmqO23muua75rjmvea+5r/mvDqgH6oL6oE6oF+qG+hFLCfxWypUoUb5WclKrzOopoxvVqvnnpnVrP9GsQb23mtWvtzG7Tvr3DWqkmrrJVe0LU9nUrFzBVK9Q1qSWL2NS7AuW4kKMiIjFVc1xzXPNdc13zXnNe819zX91QD1QF9QHdUK9UDfUj1hK4DdyWLkTSmSmlC89Nq1C+dnVK1V4o2ZSxU/Skyp9lV6l0ve17BpRzcoVtQvaVLdrSDLNvkh7tC+a1Isn418jImLR9RczO2Gux2e95r7mvzqgHqgL6oM6oV6oG+qHOlKQEzhQDs3Pzz9szJicY9q1yEqtm1qtZ/VK5W5MKV9mkV0b2pxctvROt1YUWzNKNPGFQkTEaFp49qsH6kKsD5vVC3VD/VBH1BN1RX0pyAzslalTp/6fblE2cujAZjk9Oue2btLoynrVU55Lq1BubXLZUjv37J6I76JIiHHQi4WIiNGycHzjTYjtwt6pXqgb6oc6op6oK+pLLDUQ4xdrJbrgesTgAdnDcvuNO6NX95mdWp38Snbt9I9rVK6wLbaA9xwfIL6IiP+7JnagYEu4oBHqhbqhfqgj6om6or7EUpMIW8eJnHHGGSUH9u3dPbd3r9tzunZeahfi503qZnyXnlTxx/gaD+FFRMREXYhjG2nqhbqhfqgj6om6or7EUgNBvPPOO0fk9e9Vq3enU0d1O6XNUx1btdjUKruRaVyrhhbqnl0PBxLh+JpRfBdFtTIlTbXSJ5iqiIhYRDz+Z19rRrtZ7S5NSjjs+CtmvjqhXqgb6oc6op6oK+qLOhNLDsTJz88/Ym5+/vHXTpuWMqxfn/YdW7b4U4tG9edn18n4tlF6DVM3pao7E04L+UBeDKkXQy9klVLHm6QTjjWVjj/GVDz2aFPhmKOc5Z1HIiLif1k3l+181oyudFwJU9nO66SSx7n5rTmueR405wsbb4R6oW6oH+qIeqKuqC/qjHqj7sQSBFdfffWxt153XeofLzq/VV6/nBFtmmbdlVk95Z2aSRV/rBm7/Choge9Lt1YU2wLWGpaLsX1RFeTKiIhYZNRcTiopC8JbVca2in/rIUh1Q/1QR9QTdUV9UWfUG3UnliCYeu65ZaZecEGT884anZvbp+dlrZs0fqp2tSprtPYTPxEraCEX1oXX/l19rG4Xvq4fq5NcxWSmJZuGNaubxhk17VpRLdOkboa1trNpPWvsc0REPDi62Wst+DrDzWbNaG296iYc9ezc1vzWHI/vCY3P96D5X9jEfqgn6or6os6oN+pOLEFw9vDhSeNHj+gyZkjelP7duz1g11gW1Umpujm+JauPQQs5US1orT1prUprUInHBDq3bmlyTuts8vrmmBGDcs3oIXlmzNDBZsywIWbssKExh7ivERHRr5q3Y4fbuWvV16MGDzLDc88weaf3Mf17dDM9O7bXsVw7vxu7MGuea667+W7nvOZ9UAcSTeyHeqKuqC/qjHqj7sQSBCMGDUqzL8DgvL6nz+jTpdP8Nk2z9W4ZO7TGs78t4fiuav0dvUA6rqAXSVu/7Zo1Nf16dHUv+B8uvMBcf/VV5s5bbjaz7rrT3DvjbnP/zBnm/lkz7UdpP0dExIPi7FmzzOx7Zpn77Ocz77jd3HbTjXZGX2kum3KJmTR+nBk1ZJCd393MKc1PNJnVU9xc13zXnI83YV+HKvV31A91RD1RV9QXdUa9UXdiCYIBfbrVzs3pPaF/z27P9ji1/eo2TbK224X+gxbkge6O1oLWWo/Uu2y0atLYDOjdw72Y06+8wsZ2hnn2qTnm1VfmmQXz55tFb7xh3ly40CxetMgsXigXuq8REdGvmrdL7Oxd8uab5s0FC83rr71mXnlxrnl2zhyT/9fZ5q5bbzbXXDbNze/cPr1MazvPNdfjM/5AdknHI6zP1RN1RX1RZ9QbdSeWIOjdtWNmTpdOU3p16vBG57Ytt7fMaujWfLTw9hVhvRD6b/qom3rXSalqsmrXMu1bNDNDz+hrpl0y2dx7953mmSfnmPn//KdZvmyZWfnRR2bN6tVm7Zo1Zt3atWb9unUF6nNERDwofrZuvfls/Xo3h1evWmU+WrHCLF+61Cx8fb555aUXzVOPP2bn911m2pSL7Tzv5+a65rvmvOZ94vwP6kOhCBt1RX1RZ9QbdSeWIOjWrmXD09q2vqJz65bvakG3aFTf7U52C3IfEdaf6ziB2+efXMX+fw1Mz04dzNjhQ9zW75xHHzFvLX7TvcAbN3xmNn/xufn666/Ntq1bzfZt28z27dvNjpj6HBERD44Fs3eH+3zrli3mqy+/NF9s2mQ22DAr0p+sXGmWLl5snnzsUTP9qivcXNd815zXvNfcd/N/H33Q39Hn6om6or6oM+qNuhNLEHRo0bRx++YnXtu2WfaqNk2zTLP6ddw1XnsW5F4WsnZL6NR2fWxQM810bd/WnDNqpLnhmqvM03OeMCvef898s2OHibNr1y7z448/OnfFtX+260eZ8GeIiOhXzV43fwtmsty5c6f7GEfz+wM7xzXPNdc13zXnNe8T539QHxLboZ6oK+qLOqPeqDuxBEHzhg2zWjTMvL55g8y1JzWoZ7Jrp5s61ZL2LMi97W7QWlDF40q4jzq9fdDpvc01l08zjz+Sb5YtXWK3er+KvZQAAFAc0RzXPNdc13zXnNe8T5z/QX2I767W5+qJuqK+qDOuN7Y7sQRBw/TUrIbpadc3rJm6tlF6mqmfluyuDYsvyL1FWBd1ly9xpKlS8jjTvGGmW0t64L57zJLFi8zGjRvMDz/8EHsZAQCgOKI5rnmuua75rjmvea+57+a/7UBQHxLboZ6oK+qLOuN6Y7sTSxCkV6mQlZ5UcXp6UqVPM6pWMhmxi7MLL9TC6u4qZY86wu2S0PVkugxp3ktzzaZNG83OnQQYACAKaJ5rrmu+a85r3mvuu/lvOxDUh0TVE3VFfVFnXG9sd2IJgtQKpbNSy5eenlquzOrqWmAVyxl9DFqYiepFKHPk70zlE44xbZs1MVdP+6NZumTxz44pAABA8UdzXfNdc17zXnNf818dCOpDooldUWdcb2x3YgmC1NKls5LLlpqeUrbU6rTyZQ4owFIXbZf+/eHuZt/tmjd1Z9C9/967sZcMAACihOa75rzmvea+m/8HEGHpumL7os6oN+pOLEHw05Zw6V+1JZwYYd1V5bqrr3Rn0gEAQPTQfNec17z/NRFO7Io6w5ZwIQoiXHa6XUtZrQVVo5JdWPZj0MJMlAgDAPzv8JsjHOuK+qLOqDdEOIFQInzSie7e0B+uWBF7uQAAIEpovmvOa94T4RAJa0uYCAMARJc9EWZLOFzCinDB7uj3Yy8XAABECc13dkd7gAgDAMD+IMKeIMIAALA/iLAniDAAAOwPIuwJIgwAAPuDCHuiuEZ49+5d7p6m33//vfn3d9+Z76zffvvtHr9DRO9++438xn1elN60Zffu3W42aBZ8Y5+fnqM+16zQ89RtGPV3fiu7d+378fUWgf/J4ws9Rz3Wv//9bzff3DLX49vv+58+/98CEfZEUY7wvn7I9N6XO3bsMFu2fG2+3LzZfPH55+bzjZvMpo0b3cfPNyGibzdu2GA2frbBfb5t67a9/s4W/Hm40dBj7u376X3Kt2zZ4ubBhvWfmQ2ffeY+16zYvm2b+d6GTaHcF/t6fM2fLV/HHt8+9i8f/3sb6l2xvx3Mvh5fKL56rK+++rJgvtllvPmLL+xy3lrw/Pfz+GFDhD1RHCOstcAtX39l1q9ba1at/Nhdv/b+u++ad5cvN+++/bb7+B4ielW/Z8uXLTNvL13qvl7z6admx/btsd/Sn7Ov2Pxm9hGxrTbAn6xcad6x82DZkiXm7bfesrNhuZsVa1avNl+4lYatbst1bzHbVyQV+E9WrnLzZtmSt2KP//YvHl+x3Ntj7Ovx9bwU3jWfrjYff/jBnvm24r33zKeffBJb6Sl4/JDXbfYKEfZEUY5wHP2gas1Tu2O+/uor90Ood/R4dd7L5oW/P2ueffJJ8/QTj5snH3vM+qj7+NTjiOhT/Z498be/mcfy893X/3j5ZfPeO8vdFqH2Urndsgdpa00r5tpVq/mglYG3Fi82Lz3/vJnz6KPm0Ycfds9Rs+HvTz1lXp77gnnjX6+Z5XblQbNky9dfu/myLwoOf+0039h/l7b+tfLx8ty5scd/yD7+w+7xNYteeuF5M/+fr5ql9jms+vgjt/Wq56Zlsa8g6/G//fYb9/c//vBDs2jB62beiy+Y555+yi7fgvn2zJw55sXnnjPzX9Xjv2lW2r+nIGuXuP7/fYX9P4UIe6I4RPiHH753P2haG/zXq/8wTzzyN3PnLX9xb6t16eQLzZRJ5xd4wfnmkgvOcx8R0a/6Xbto4gRz4YTx7us/X3G5uW/G3eb5Z542ixcuNGttDHWs9GCg+L67/G0z97m/mwfvv8/ccsN15vKpfzAXnz/RPb+Lzp1gLjn/PDP1ogvNZVMucc91xm23uueqeyJrq3LXrvju6V9G7Jtvdph1a9e4lf8X7ffQv/Oay6a5x580fpz7Hnp8vd+uZtIVl/7B3HzddBfoRQvecP+v23L9/vvAFRNtYCju77/7jnntH6+YRx560Nxyvf03/GGKm22X2O8zxS7vP0yyj2//DXr8v0z/s8n/62wX/FUff2y+3PyFi7hWSHxAhD1RHCKsXVxaw9ba9s3XT7e/UOPN4H455rR2bdzbaun9Ldu3aGY6tGhuPzZ3HxHRr/qd0+9e66ZZ7us+p3Uyo4fkmT9dMtncc9cdNg7/dFt1BwMdltLW6B8vnmzOzBtoTu92mp0Prc0pJzUzbU7M/mlGnHySs2u7tmboGf3MdBvjl+2WqyIZD5i2egujjYA35v/LPHDvPW7l/+wRw0yfLp3c7GvVpLFpe6Ie3y4Tfb+m2aZds6buv19oZ5X+nzcXLjBr13xqtm7dYrdYf3kC25dfbjbL3lritqZvueF6F/YzevUwHVu2SHj+sce3X2vu9ep0qpk4doxbmfjHSy+ZD+383fzF5zb0/449argQYU8UhwhrDU+7nrXmpx/+7h3amSZ1M9zz1PPQG0snlylpUsqVRsSDZHLZUqZKqeNNUslj3df10pJNq+zGpl/3rubi8841j9mtwNWfrIr9FvtD4VyyaJG7r7Hie2JmXVM7uYqdZeXtcyzpnmPV0ie45xt/zqnlypjm9euZMUMHm/tm3m2W2S3cTRs3uN26hbcktXt35Ucfmcf/lm8jf5HdADjdvYlBpv33VrNzRzNQj5liH1vfp/wxR5ryJY40tapWNj07dTCX261WbUAosjqBSydcFUZ7DV549hlzw7VXm3FnjjDd2rc1jdKru8evdFwJu4yPc8+9mn38Cscebb/HUaZm5Qqmc5uW5iK7FX7/zBnmtVfmuePg+jf4gAh7ojhEWCc6PG7XcrV22K19O5Ndp5Z9jmVNBfuDWOqIw0yp3x9myh39e/eDj4gHx3LWMkf9zs0Bfa0AZdjwnNy4gQvV7X+50YVHx0N9ojOSdZx08sRz3Vao5pfCpVhpLug5lj3qCPd8y9qvNTP0de2qSaZ3547m8qlTzJxHH3HHWDdu+OwXW5Lbt28zby5YYG698XozbEB/txUaD3D88fQ9tAzKHPk7c+yhh5hjDjnEzciW2Y3M2OFD3dbtc9r1veJ9d1w5EZ2E9c7by8y9M+4y40efuWfGacVGz7Pk7/5vzzLW18cfdoj7HhXtv7FJnQwzoHcP88fJF5kH7Rb3kjcXuWPcPiDCnijqEdYPqM68vOvWW0ze6X3cD2eaDXBVrYHb51DR/qJVPO5o9zz0nBDx4Fnp+BIuBvpcW2sKsbZCu7RtbS77wyXmlZdeNJ9v2uhO0grzpCEdV/3h+x/cWdA6I/nhv842Y4cNdXvIqtjnoS3FSm4mHOM+Fnxun699ropxhWOONulJFe3sampGDR5k/nzFZe5ck/ffeccd/43z486d7iqM55992h3v7dS6pamXWs0FUjNIc0fzR8tBj69loVAqxtXKnODmVe8uncz54842d992q1nw+nz3nBP56ssv7VbsK+aqP13qdjE3qlXDzWAtSz3vCscetWcZ6/uUK/F7G/8j3L+zbkpV0/bEbDMop7c7Tjz378+aLz7fFHvkcCHCniiyEba/q/pF01rdotdfd78k+sXW99YWsH7hU8uXQcQioqKhrU99bNGovjnv7LHmycceMSs//shs27rF3WQirAjrTGCd6LT20zVmwfz55s5bbnZb3w1qpLpwaeVcW6qFn6OLZ+mC3dPpVSq5XdfdO5xizhoxzJ3MpbOm9bhxtBW84r13beTvd1u0iqripyju/fFPcGp3eIOaae547oDePd2JYi8+/5yL7h7s4vhs/Xrz7JNz3PJq3iDT7dpW2IMeX8Z3q2sWapd0vbRqpnWTxvb5DTF/e+Cv9vHWxR48XIiwJ4pqhBVgnUn4+caN5p/z5rmTPdo0zXK/5CV/d6j7IdUPZNBzQ8SDr1aMtQWoLbXGGTXtlukQ89Ds+91ZyzphSGcAB50Z/FvQlrXOiNaxWl0apfNFzujZ3W2Fa0tXu24VscLPUTNDW6g6thqPpHZhD+jVw21JvvLii+4GQHG0q1u7qWfdebuLvB6/tP036t+p0AY9fjySevy6dqs5HvrJ551rnn3qyZ+drKabiqxdvdo88bd8M2boEJOZllJwiM2q2LvHLTSP4zHW5/HvVb96ism1odcu7bVr1sQePVyIsCeKaoTj1+Stsz9QL9m1R52mf3JWQ/fLdcLhh7g1Xf0gFjzX/T9fRPTrnggf/XvTML26O0tZJwzpOKW29nSVQ5gR1hblRx98YObZcN547TWmX49upna1pD3nh+w9wiWd8Ug2b1DPnUA19cJJ7vKj+DFVbbVv/Owzd1b07X+5yeT26eVOttLccxG2W6x6zMR5WTjCdZKrmiZ1a7srOXQZ0zNznvhZhHUSmK5V1pndowbnud3LJxx+qNvQ0PIs/Pjx7xGPsLaatYs93W4R62zsGbff6m7w4QMi7ImiGmFdG6zdQqtXrTTPP/uMu0ZOu1y0q0knYunYSPwHERH/+yoICqBWkLMy0m2EB5l77r7LLHrjDbcyrVsw7u9WkQdK4pbwq9oSvm66u6Snjo2YjgfLvUVYZ0xLRVLHd5spwh07uGO+iRFWINetXWv+9eqr5rYbbzADc3q7SOrfKLU1Hfz4P0XYPX79eqbHqe3dNcV/t1vCutojjpaHTjzV8Wjt7m5QI80FXrNVy7Pw48e/R2KEKx5bwu2WdhG+jQgXO4puhH9wv7RrVn/ijqPo0gBd56dLkbSWq5OyiDBi0VG7Z3V5jmaDTpDS7tX7Z840ixctMuvXrTPbQ9wS1p6yrVu2mk9twF5/7TW3pTro9D7urGWtBOhkpv1tCStcDWpWd7ujFfArLp3qTiSLnzil56pLinTMWSeG6rpi7b6On3m9v8dXhOvXSHWXbfXt3tUdUtMd/nRN8B50TNgum2eeeMJMGDPKLTcdb9Yu9aDd3fHvEZ99yWV02VJJtxtbu9TvtSs97I4uZhTVCOsXQCHWrpvX//WaufbyaW6Xjn6w9Uum7+t+2O0Pqj5qzVMnRSDiQTK2xRePjuKkmaCtUJ3ANG7kcPPIgw+6+x1r1/G+7tP8a9FWqo4x6/7Kune1triH9O/rtlTjZydrRT3+3OJbpwqbi7R9jgpZk3q1Ta/OHc25Y8e40OruVlr5j7N923b3/B+6/34zeuhg07hWjYJI2i1h7S4Oenx3YthxR7tlpGjr5iC6tEl36VLk9YYMiei4sw65aXd1i0YN3NZt/OTTxMfX4+mj/nv836ZZrF3eCr3ODufErGJIUY1wnJ02xLqV2x033+RuAqAbAuiHUN9fP6T6/vqoH/74DywiHgTt75y7VND+/umGHQXnaxxqyh31e3cc9PxxZ7lrYzd8tt6dZBnmJUrxx9I1yKs/+cQ88tADZmTeQBvhaqb0EYe7a2u1tarnpROc9DzjgdTc0n/Xv6G13QoeM2yI+ct1f3YnTelyp8K32tSGgG6koX/PiZl1XAAVYa106HOpmaTHj/83nbylP9MJajrePPGsMe4Mbp19Xfg6Xq1MaGt+2pSL3Z3HalSqUDDfYupzPZaerz7Gr3/Wctcx8JZZDU3/Ht3clraWt+7u5QMi7ImiHmGxfu1ak2/X8HTMRLfIq5eabJ9neZNq1wxdfK1aS9TXqeVjHxHRj7HfsfiWWVwFQscn9ee6baOioPsa6zIfn2j3rq7j1SU+zTLr2uDa2NpAajbEn1tKuYItSf2ZdvUqYjrJStfl6tKhOY896u4LHXRHK211awv5yj9ONZ1an+zCp70Aekw9tuJY8D1Ku8+1paxQakbpPJZhuf3NlX+61PztwQfczUu2JWxpx9GbSWhFoH+P7qZpvTomo2qSm8N6XPfvsI8bX97u2mf7PTSHm9Wva07v1sVcMF7XId/iIl94SzssiLAnikOEtStLu3GmX3mFOXPwIHeSQ+smWSa7di134oMuG6hdrYrJsL8ccfWLgojhu+d3zP7e6UQoHYfVDSZ0PFPXuep+xzopa8btt7nLk77/4fvYb7If9I5NC9943Z0hPSinj5tHirF2iessbe09025qnQnttJ/r+Z5qn6eOw+rNGPT/692XCu7t/Mt3VProgxVm9qwZZvyokTbcHdz9m7VVrMfXY2o56KPmkT7qz3WsWceptTLy13tnuVvv6h7XQW9qodtN6s0edBWI/h/djvKkRvXd49Sxy1l3Ikuca5nVU0yLxg1M3+6nuftT33HLX9xW8Ir333PH3n1AhD1RHCKsG6vrUgSduTjrzjvcbhvd5Ua7eXQLOf2wau0xy0a5cUa6+5hdJwMRQzbLhq3gdyzd/s7Vdr972urtekpbk9unpzsOPO2Si83MO2530dEJWWEdB94birwippOebr/pRvdOQ6OHDDb9enQ1Xdq2csHUsVapG2fotpB5fXPMpAnnuOPAr86b585Q3rZtq7uhSNDz1bFnhfqh2feZ6Vdd7nYv69+rGwjFH1+361R4FVB9b93n/trLptm4PmgW2f/3k1Ur3RndOtelMAXXIy92t8/UTUP07lR6jl3atXa3vtSy1kqFrjnW99B1xzrO/KeLbeDvmeXeeelDu6KgXefa9e8DIuyJ4hBh7Q7asWO7u6+r1qx17Oam6deaiWePcRfQ69R8nbR1asuT3DuN6GPHVicjYshq69G9U9nJJ7kA6aQmbbmNO3O4u9mFrgueN3eue4P7DevX/+I+yT5QNBVQvQmCQvb8M8+4W0ROvWiSO96r63v7dOno1K1vdWz3hmuudre61OVHOqa8vzc90P2kv/7qSxfSN+a/Zh647x63MaC7VBU8fif3+LphhlZELrP/7W4beL0XsN4BTnvzdNnl3o6LK5y6SYguL9Ku7/wHZrvlqUNw/Xt2i823FqarXYHQ8ta/4bqrrnRbz/o361aVeo5aFmEddy8MEfZEcYhwIrqvq97/8+k5T7g1Rl26pGNB+mEdMSjXDB84wIy0H7XbGhHDVSc/6XdshFWBO3fsaHd97fXXXOVu7bhg/r/cORyKr+677CsIhdH30UmcureAtor/8fJLbjfztVdc5t73WFuu8lIbZp3kqZtm6O0FP139ibuJyIGz22ze/IXdKp5v/nrvPe6MZ93DQDNIj6/PFfiH7r/PvPzCC+6k0l/3hgq73XXEem5uq/vKy91WsW6rqWV/tg283k9Yl2Tp2mK9b7O20g8GRNgTxS3CQr8Eby99y+2efiz/ITP7nllu95fOPrzj5r+4j9rNhIjhGv8dkzrmqy1fnZmsLT7trlXUDsbW795QjHWd78cffmi3cv/hYquTOmfPmumO6T760INm3otzzfJly9z1tFvs39WetiD2tgKh3cnaYtVJUM88Oafg8e/R4890nz//zNNm4evz3fv76kxlrRwE4R4/4Fvo8fXc9GYPuqe0bv05886C+Tbrrjvc1u/Lc18wby1+071HsS79CiLsFSAi7IniGGFdlqBjH/pF0C+bbrD+7vLl7hdr+bKl7qPeGgwRw/Wn37Gl7tDQ++++687X0PsGb9qwwV1jG3Ri08FEx3W19albZWr3sU6q0oyQH3/4gbt7l1bkdQJT/NKpX4N2+erfqTOpCz++PtdtKDfaZaHjv9/+hvtlu8e3z02PsXrVKvPhivfdfHvHLnvt2ta/QZHWLmj9vb2tRIQNEfZEcYywfmni6gcWEf+77t5dcCzy1wbNF3tmROBz/Wl+/FYO9PHlb2HP/x/w+IW/x8GCCHuiOEYYAAAK4zfIRNgTRBgAAPYHEfYEEQYAgP1BhD1BhAEAYH8QYU8QYQAA2B9E2BNEGAAA9gcR9gQRBgCA/UGEPUGEAQBgfxBhTxBhAADYH0TYE0QYAAD2BxH2BBEGAID9QYQ9QYQBAGB/EGFPEGEAANgfRNgTRBgAAPYHEfYEEQYAgP1BhD1BhAEAYH8QYU8QYQAA2B9E2BPFIcLl6/ZERMTfaBgQYU8QYUTEaBsGRNgTRBgRMdqGARH2BBFGRIy2YUCEPUGEERGjbRgQYU8U1wjbp46IiIUMmpdhQIQ9QYQREaNj0LwMAyLsCSKMiBgdg+ZlGBBhTxBhRMToGDQvw4AIe4IIIyJGx6B5GQZE2BNEGBExOgbNyzAgwp4gwoiI0TFoXoYBEfYEEUZEjI5B8zIMiLAniDAiYnQMmpdhQIQ9QYQREaNj0LwMAyLsCSKMiBgdg+ZlGBBhTxBhRMToGDQvw4AIe4IIIyJGx6B5GQZE2BNEGBExOgbNyzAgwp4gwoiI0TFoXoYBEfYEEUZEjI5B8zIMiLAniDAiYnQMmpdhQIQ9QYQREaNj0LwMAyLsCSKMiBgdg+ZlGBBhTxBhRMToGDQvw4AIe4IIIyJGx6B5GQZE2BNEGBExOgbNyzAgwp4gwoiI0TFoXoYBEfYEEUZEjI5B8zIMiLAniDAiYnQMmpdhQIQ9QYQREaNj0LwMAyLsCSKMiBgdg+ZlGBBhTxBhRMToGDQvw4AIe4IIIyJGx6B5GQZE2BNEGBExOgbNyzAgwp4gwoiI0TFoXoYBEfYEEUZEjI5B8zIMiLAniDAiYnQMmpdhQIQ9QYQREaNj0LwMAyLsCSKMiBgdg+ZlGBBhTxBhRMToGDQvw4AIe4IIIyJGx6B5GQZE2BNEGBExOgbNyzAgwp4gwoiI0TFoXoYBEfYEEUZEjI5B8zIMiLAniDAiYnQMmpdhQIQ9QYQREaNj0LwMAyLsCSKMiBgdg+ZlGBBhTxBhRMToGDQvw4AIe4IIIyJGx6B5GQZE2BNEGBExOgbNyzAgwp4gwoiI0TFoXoYBEfYEEUZEjI5B8zIMiLAniDAiYnQMmpdhQIQ9QYQREaNj0LwMAyLsCSKMiBgdg+ZlGBBhTxBhRMToGDQvw4AIe4IIIyJGx6B5GQZE2BNEGBExOgbNyzAgwp4gwoiI0TFoXoYBEfYEEUZEjI5B8zIMiLAniDAiYnQMmpdhQIQ9QYQREaNj0LwMAyLsCSKMiBgdg+ZlGBBhTxBhRMToGDQvw4AIe4IIIyJGx6B5GQZE2BNEGBExOgbNyzAgwp4gwoiI0TFoXoYBEfYEEUZEjI5B8zIMiLAniDAiYnQMmpdhQIQ9QYQREaNj0LwMAyLsCSKMiBgdg+ZlGBBhTxBhRMToGDQvw4AIe4IIIyJGx6B5GQZE2BNEGBExOgbNyzAgwp4gwoiI0TFoXoYBEfYEEUZEjI5B8zIMiLAniDAiYnQMmpdhQIQ9QYQREaNj0LwMAyLsCSKMiBgdg+ZlGBBhTxBhRMToGDQvw4AIe4IIIyJGx6B5GQZE2BNEGBExOgbNyzAgwp4gwoiI0TFoXoYBEfYEEUZEjI5B8zIMiLAniDAiYnQMmpdhQIQ9QYQREaNj0LwMAyLsCSKMiBgdg+ZlGBBhTxBhRMToGDQvw4AIe4IIIyJGx6B5GQZE2BNEGBExOgbNyzAgwp4gwoiI0TFoXoYBEfYEEUZEjI5B8zIMiLAniDAiYnQMmpdhQIQ9QYQREaNj0LwMAyLsCSKMiBgdg+ZlGBBhTxBhRMToGDQvw4AIe4IIIyJGx6B5GQZE2BNEGBExOgbNyzAgwp4gwoiI0TFoXoYBEfYEEUZEjI5B8zIMiLAniDAiYnQMmpdhQIQ9QYQREaNj0LwMAyLsCSKMiBgdg+ZlGBBhTxBhRMToGDQvw4AIe4IIIyJGx6B5GQZE2BNEGBExOgbNyzAgwp4gwoiI0TFoXoYBEfYEEUZEjI5B8zIMiLAniDAiYnQMmpdhQIQ9QYQREaNj0LwMAyLsCSKMiBgdg+ZlGBBhTxBhRMToGDQvw4AIe4IIIyJGx6B5GQZE2BNEGBExOgbNyzAgwp4gwoiI0TFoXoYBEfYEEUZEjI5B8zIMiLAniDAiYnQMmpdhQIQ9QYQREaNj0LwMAyLsCSKMiBgdg+ZlGBBhTxBhRMToGDQvw4AIe4IIIyJGx6B5GQZE2BNEGBExOgbNyzAgwp4gwoiI0TFoXoYBEfYEEUZEjI5B8zIMiLAniDAiYnQMmpdhQIQ9QYQREaNj0LwMAyLsCSKMiBgdg+ZlGBBhTxBhRMToGDQvw4AIe4IIIyJGx6B5GQZE2BNEGBExOgbNyzAgwp4gwoiI0TFoXoYBEfYEEUZEjI5B8zIMiLAniDAiYnQMmpdhQIQ9QYQREaNj0LwMAyLsCSKMiBgdg+ZlGBBhTxBhRMToGDQvw4AIe4IIIyJGx6B5GQZE2BNEGBExOgbNyzAgwp4gwoiI0TFoXoYBEfYEEUZEjI5B8zIMiLAniDAiYnQMmpdhQIQ9QYQREaNj0LwMAyLsCSKMiBgdg+ZlGBBhTxBhRMToGDQvw4AIe4IIIyJGx6B5GQZE2BNEGBExOgbNyzAgwp4gwoiI0TFoXoYBEfYEEUZEjI5B8zIMiLAniDAiYnQMmpdhQIQ9QYQREaNj0LwMAyLsCSKMiBgdg+ZlGBBhTxBhRMToGDQvw4AIe4IIIyJGx6B5GQZE2BNEGBExOgbNyzAgwp4gwoiI0TFoXoYBEfYEEUZEjI5B8zIMiLAniDAiYnQMmpdhQIQ9QYQREaNj0LwMAyLsCSKMiBgdg+ZlGBBhTxBhRMToGDQvw4AIe4IIIyJGx6B5GQZE2BNEGBExOgbNyzAgwp4gwoiI0TFoXoYBEfYEEUZEjI5B8zIMiLAniDAiYnQMmpdhQIQ9QYQREaNj0LwMAyLsCSKMiBgdg+ZlGBBhTxBhRMToGDQvw4AIe4IIIyJGx6B5GQZE2BNEGBExOgbNyzAgwp4gwoiI0TFoXoYBEfYEEUZEjI5B8zIMiLAniDAiYnQMmpdhQIQ9QYQREaNj0LwMAyLsCSKMiBgdg+ZlGBBhTxBhRMToGDQvw4AIe4IIIyJGx6B5GQZE2BNEGBExOgbNyzAgwp4gwoiI0TFoXoYBEfYEEUZEjI5B8zIMiLAniDAiYnQMmpdhQIQ9QYQREaNj0LwMAyLsCSKMiBgdg+ZlGBBhTxBhRMToGDQvw4AIe4IIIyJGx6B5GQZE2BNEGBExOgbNyzAgwp4gwoiI0TFoXoYBEfYEEUZEjI5B8zIMiLAniDAiYnQMmpdhQIQ9QYQREaNj0LwMAyLsCSKMiBgdg+ZlGBBhTxBhRMToGDQvw4AIe4IIIyJGx6B5GQZE2BNEGBExOgbNyzAgwp4gwoiI0TFoXoYBEfYEEUZEjI5B8zIMiLAniDAiYnQMmpdhQIQ9QYQREaNj0LwMAyLsieIaYUREPDDDgAh7gggjIkbbMCDCniDCiIjRNgyIsCeIMCJitA0DIuwJIoyIGG3DgAh7ojhEGAAA/rsQYU8QYQAA2B9E2BNEGAAA9gcR9kRYEb7+6qvMhytWxF4uAACIEprvmvNEOGRCifBJRBgAIMrsibCd90Q4RMLaEi7YHf1e7OUCAIAoofnO7mgPFES49PTUcqVXV7cLTAtKH4MWZqJEGADgf4ffHGFrvCvqjOsNEf6J1NKls5LLlpqeUrbUaruWckABlokRbte8qZl+1RXm/ffejb1cAAAQJTTfNec1739NhKXriu2LOqPeqDuxBMFPW8JlftWWcJJd+GWO/J19EY4xbZs1MVdP+6NZumSx+fHHH2MvGQAARAHNdc13zXnNe819zX91IKgPiSZ2RZ1hS7gQ6VUqZKUnVZyenlTp04yqlUxGlUqmRqXygQsz0aSSx5myRx3hXoRW2Y3NHy68wMx7aa7ZtGmj2bnzh9hLBwAAxRnNc811zXfNec17zX03/20HgvqQqHqirqgv6ozrje1OLEHQMD01q2F62vUNa6aubZSeZuqnJZtadoFp4aWWL+MsvFBllVLHm/IljjRV7IvQvGGmOWfUSPPAffeYJYsXmY0bN5gffiDEAADFGc1xzXPNdc13zXnNe819N/9tB4L6kNgO9URdUV/UGdcb251YgqB5w4ZZLRpmXt+8QebakxrUM9m1002daklu4aWUK73XCFctfYKpeFwJ9zG7Ti0z6PTe5prLp5nHH8k3y5YuMV9//VXsZQQAgOKI5rjmuea65rvmvOZ94vwP6oO6oX7oc/VEXVFf1BnXG9udWIKgQ4umjds3P/Hats2yV7VpmmWa1a9j6qZUdQtPCzG+IAtbrUxJt0tCHxvUTDNd27d1a0k3XHOVeXrOE+5Mum927Ii9lAXHFHbu3Ok+yl1y164C418jIuJB8Oezd89ctn8WR/N7hZ3jmuea65rvmvOa94nzP6gPie1QT9QV9UWdUW/UnViCoFu7lg1Pa9v6is6tW77bvkUz06JRfZOZllywIMuW2muE9edaC9LfqZNcxf5/DUzPTh3M2OFD3Bl0Tz72qFm6eLH5ZOVKs37tWrNh/XrzxaZN5qsvvzRbt2wx27dvNzu277Bud58jIuLBUXN3z+zdts1s27rVbvV+bTZ/8bnZuOEzs3rVKvPW4jfNnEcfMdOvvMLNdc13zXnNe819N//30Qf9HX2unqgr6os6o96oO7EEQe+uHTNzunSa0qtThzc6t225vWVWQ5NZPcUtvOR9RDi+u0Efa1auYOrYtZ2s2rXcgh56Rj8zbcrF5t677zJPPf6YeeWlF83C1+eb5UuXmo9WrHAv8Dob5s9smD9bt95FGhERD5Lr1jk1h9euWWPWrF5tVn70kVm+bJmZ/89/mmeenGPn951m2iWT7Tzv6+a65rvmvOZ94vwP6oP+m/qhz9UTdUV9UWfUG3UnliAY0Kdb7dyc3hP69+z2bI9T269u0yRru11oP2jh7SvCieqF0G4JmVG1smndpLHJ7dPLTBo/zlxz2TRz1603m/y/zjbPzpljXnlxrnn9tdfMmwsWmiVvvmmWLFpkFi9caN5ERETvat4uXmjnrp29+nrRG2+YBfPnm1dfmWeefWqOuX/WDLf1q/k9oHcP08rOc831+IzfW3gTLRThH9QV9UWdUW/UnViCYMSgQWnDc88YnNf39Bl9unSa36Zp9qf10pJ3aEHvL8Lx21vq7+ii7QrHHm2qljrerfnorir9enQzo4YMci/mZVMuMddffaW57aYbzcw7bjf3zZxhZt8zy8yeNcvcbz9HRMSD5UwbW6v9/N4Zd5tZd91p7rzlZndvaF2GNHbYEDu/u5p2zZq63cma65rvmvPxJuzr9sbxCKsj6om6or6oM+qNuhNLEJw9fHjS+NEjuowZkjelf/duD7RpmrWoTkrVzdqfr7We+H79fakFrhdJL5COE6QnVTSNM2q668k6tmphenZsb/rbIOed3sfYF8CMGjzIjLEv8tjhQwu0n+trRET0q+bt2GGau0ML/mzoYDN6SJ4ZMSjX5PXNMTmnddaxWzu/G5nGtWq4ea657ua7nfP72jCLm9gP9URdUV/UGfVG3YklCKaee26ZqRdc0OS8s0bn5vbpeVnrJo2fql2typr4msyBLHCpNR79XX3Uxdm6NkwH8O1akGlQI9U0Sq/hwqzT25vUzbDWNk3rFajPERHx4NhU/mz2ZrjZrBndsGZ1t/Wr+a05Xt3O88T5HjT/C5vYD/VEXVFf1Bn1Rt2JJQiuvvrqY2+97rrUP150fqu8fjkj7BrLXZnVU96pmVTxx5p24R/IOyoV1r1gsTUhrUFp7UkXdevuKkklj3WntmutChERi4aay5rRmtWa2/Et2QMNb6Lqhvqhjqgn6or6os6oN+pOLEGQn59/xNz8/OOvnTYtZVi/Pu07tmzxpxaN6s/PrpPxrbZedY2Xtmz1QvyatSC9gPHw6mbflY4rYSoee7Q7rlDhmKNM+WOORETE/7pHuZksNaMr2XmtIGt+uxDbeR405wsbb4R6oW6oH+qIeqKuqC/qjHqj7sQSBHHeeeedI/L696rVu9Opo7qd0uapjq1abEo8JpBqX4gD3R2hv6O/q7Uo7ZLQC+nUVvHPLFjjQkTE/76a0ZrVbley/JUzX51w5wTZbqgf6oh6oq6oL+pMLDkQxBlnnFFyYN/e3XN797o9p2vnpZ1anfx5k7oZ39mF+mM8qgfygiAi4v+OLsKxaKsX6ob6oY6oJ+qK+hJLDcQ4NPZxDzk5OUeMGDwge1huv3Fn9Oo+0y7EV7Jrp39co3KFbVozih9o1wKPG/SCICJitE3sgLoQb4R6oW6oH+qIeqKuqC+x1CTyiw79TzN16tT/Gz9iRMWRQwc2y+nRObd1k0ZX1que8lxahXJr7cLd6SIcVzFOCHLQi4SIiNFyT3zt/I/vIZWxCO9UL9QN9UMdUU/UFfUllhrYB4fm5+cfNmZMzjHtWmSl1k2t1rN6pXI3ppQvs8gu7M3JZUvvLBzfuEEvFiIiRsvCsz8e41gfNqsX6ob6oY6oJ+qK+lKQGThQDit3QonMlPKlx6ZVKD+7eqUKb9RMqvhJelKlr9KrVPpe14/VrFzRnQmn09F/cSmTwpzwQsW/RkTEousvZnbCXI/Pes19zX91QD1QF9QHdUK9UDfUD3WkICfwmyhXokT5WslJrTKrp4xuVKvmn5vWrf1Eswb13mpWv97G7Drp3+smHHWTq5qMKpXdTb2r2xdJL158F0Vs9wQiIhZD9xx6tHNd811zXvNec1/zXx1QD9QF9UGdUC/UDfUjlhL4rbRq1erIfl27ls/t2bNu365dT8vp2mVyny4d87u1b7f0lOYnft4ss+7uRjWrm3op1ewLU8nUsGtI2jVR8AKWNMk61R0REYunmuN2nmuua75rzmvea+5r/qsD6oG6oD6oE+qFuqF+xFIC/ynGmMOffvrpalMmndd9zPChl+X17fNY9w6nLG6VnbW+cUb6d5mpye5dNmpUKr87rULZXalW+3F39YrlEBGxmKo5HpvnuzTfNec17zX3Nf/VAfVAXVAf1An1IpYOCBO7YI++7bab6l8wYVy/kYMHTD69a+eb27doln9i/bovZmWkL2hQI215vbTkD+ulVfu0fo3UjY1q1fgqu0769iZ1an0js+vU2pFdt9Z2REQsoto5/dPMTt+uOa55rrmu+a45r3mvua/5rw6oB+qC+qBOxJIBYWMX7mEPPzyj7EUTJ9YeNXzwybm9unftfuopAzu0an52m2bZl7bKbnzLyY0bPtwyu9HcdieduKhz65YfdGvfbq1dU9pQYLv13Tq0W4eIiEVTzen4zNb81hzXPNdc13zXnNe819zX/FcH1AN1QX1QJ2LJgLCxC/fQnJycw3TBdW5ubokJE4aVmjx5QuULzhmdMXLooJb9e3Yb0KdLp4t6n9bppgG9ezw0uH/fuSPychecOXjgWyMHD1pyZl7uopF5AxciImLR1M1pzWs7tzW/Ncc1zzXXNd815zXvNfc1/9UB9UBdUB/UiVgy4GBhF/qRDz98T+ULJpzVZOTAgb2GDug/ZtTgQVPPGTX8holnjZ5x3rix98mJZ4+dNfHs0YiIWGQdO2vPzLbzW3Nc81xzXfNdc17zXnM/lgAoCmzYvaHEVVOnJo0bPSxTuybGnTms8/nnnJVz4cTxAy+cOGFIgePzJp83YRAiIhZNNacTZvZAzXHNczfX7XzXnNe8j41+KCrMM/MOnzp16tHn5OWdMGTIkLK6Rdm5o0dXuXjixGqTJp2TPOkcREQsNtq5rfmtOa55rrmu+a45r3kfG/0AAAAAAAAAAAAAAAAAAAAAAAAAAAAAAAAAAAAAAAAAAAAAAAAAAAAAAAAAAAAAAAAAAAAAAAAAAAAAAAAAAAAAAAAAAAAAAAAAAAAAAAAAAAAAAAAAAAAAAAAAAAAAAAAAAAAAAAAAAAAAAAAAAAAAAAAAAAAAAAAAAAAAAAAAAAAAAAAAAAAAAAAAAAAAAAAAAAAAAAAAAAAAAAAAAAAAAAAAAAAAAAAAAAAAAAAAAAAAAAAAAAAAAAAAAAAAAAAAAAAAAAAAAAAAAAAAAAAAAAAAAAAAAAAAAAAAAAAAAAAAAAAAAAAAAAAAAAAAAAAAAAAAAAAAAAAAAAAAAAAAAAAAAAAAAAAAAAAAAAAAAAAAAAAAAAAAAAAAAAAAAAAAAAAAAAAAAAAAAAAAALB3Djnk/wFY7f5JIoO3jwAAAABJRU5ErkJggg==;" parent="1" vertex="1">
                    <mxGeometry x="50" y="110" width="100" height="100" as="geometry"/>
                </mxCell>
                <mxCell id="10" style="edgeStyle=none;html=1;fontColor=#2E303E;spacingRight=0;endSize=6;strokeWidth=1;entryX=1.021;entryY=0.684;entryDx=0;entryDy=0;entryPerimeter=0;exitX=0.004;exitY=0.729;exitDx=0;exitDy=0;exitPerimeter=0;sourcePerimeterSpacing=0;targetPerimeterSpacing=0;" parent="1" source="5" target="7" edge="1">
                    <mxGeometry relative="1" as="geometry">
                        <mxPoint x="270" y="140" as="sourcePoint"/>
                        <mxPoint x="150" y="140" as="targetPoint"/>
                    </mxGeometry>
                </mxCell>
            </root>
        </mxGraphModel>
    </diagram>
</mxfile>